<svg width="44" height="20" viewBox="0 0 44 20" fill="none" xmlns="http://www.w3.org/2000/svg">
<path d="M40.75 19.375H3.25C2.42145 19.3742 1.62708 19.0447 1.0412 18.4588C0.455333 17.8729 0.125827 17.0785 0.125 16.25V3.75C0.125827 2.92145 0.455333 2.12708 1.0412 1.54121C1.62708 0.955333 2.42145 0.625827 3.25 0.625H40.75C41.5785 0.625827 42.3729 0.955333 42.9588 1.54121C43.5447 2.12708 43.8742 2.92145 43.875 3.75V16.25C43.8742 17.0785 43.5447 17.8729 42.9588 18.4588C42.3729 19.0447 41.5785 19.3742 40.75 19.375ZM3.25 3.75V16.25H40.75V3.75H3.25Z" fill="black"/>
</svg>
