<svg width="38" height="38" viewBox="0 0 38 38" fill="none" xmlns="http://www.w3.org/2000/svg">
<path fill-rule="evenodd" clip-rule="evenodd" d="M4.41667 0.25C3.3116 0.25 2.25179 0.688987 1.47039 1.47039C0.688987 2.25179 0.25 3.3116 0.25 4.41667V33.5833C0.25 34.6884 0.688987 35.7482 1.47039 36.5296C2.25179 37.311 3.3116 37.75 4.41667 37.75H33.5833C34.6884 37.75 35.7482 37.311 36.5296 36.5296C37.311 35.7482 37.75 34.6884 37.75 33.5833V4.41667C37.75 3.3116 37.311 2.25179 36.5296 1.47039C35.7482 0.688987 34.6884 0.25 33.5833 0.25H4.41667ZM4.41667 4.41667H33.5833V33.5833H4.41667V4.41667ZM29.3125 14.4062C29.5115 14.2141 29.6702 13.9842 29.7794 13.73C29.8886 13.4758 29.946 13.2025 29.9484 12.9258C29.9508 12.6492 29.8981 12.3749 29.7934 12.1188C29.6886 11.8628 29.5339 11.6302 29.3383 11.4346C29.1427 11.239 28.9101 11.0843 28.6541 10.9795C28.398 10.8748 28.1237 10.8221 27.8471 10.8245C27.5705 10.8269 27.2971 10.8844 27.0429 10.9935C26.7887 11.1027 26.5588 11.2614 26.3667 11.4604L16.0542 21.7729L11.6354 17.3542C11.442 17.1606 11.2123 17.007 10.9596 16.9022C10.7068 16.7974 10.4358 16.7434 10.1622 16.7433C9.60955 16.7431 9.07946 16.9625 8.68854 17.3531C8.29762 17.7438 8.0779 18.2737 8.0777 18.8263C8.07751 19.379 8.29686 19.9091 8.6875 20.3L14.4333 26.0458C14.6461 26.2587 14.8988 26.4276 15.1769 26.5429C15.455 26.6581 15.7531 26.7174 16.0542 26.7174C16.3552 26.7174 16.6533 26.6581 16.9314 26.5429C17.2095 26.4276 17.4622 26.2587 17.675 26.0458L29.3125 14.4062Z" fill="black"/>
</svg>
