<svg width="52" height="52" viewBox="0 0 52 52" fill="none" xmlns="http://www.w3.org/2000/svg">
<path d="M1.91435 50.2352C2.62305 50.8553 3.57917 51.2 4.57143 51.2H47.4286C48.4208 51.2 49.377 50.8553 50.0857 50.2352C50.7952 49.6144 51.2 48.7661 51.2 47.875V4.125C51.2 3.23388 50.7952 2.38564 50.0857 1.76477C49.377 1.14466 48.4208 0.799999 47.4286 0.799999H4.57143C3.57917 0.799999 2.62305 1.14466 1.91435 1.76477C1.20479 2.38564 0.8 3.23388 0.8 4.125L0.8 47.875C0.8 48.7661 1.20479 49.6144 1.91435 50.2352ZM32.9429 4.325V24.2375L4.77143 24.2375L4.77143 4.325H32.9429ZM47.2286 4.325V24.2375H36.9143V4.325H47.2286ZM15.0857 47.675H4.77143L4.77143 27.7625H15.0857L15.0857 47.675ZM19.0571 27.7625L47.2286 27.7625V47.675H19.0571V27.7625Z" fill="black" stroke="black" stroke-width="0.4"/>
</svg>
