<svg width="25" height="25" viewBox="0 0 38 38" fill="none" xmlns="http://www.w3.org/2000/svg">
<path d="M6.5 16.3958C6.5 15.7803 6.62124 15.1707 6.85681 14.602C7.09238 14.0333 7.43766 13.5165 7.87294 13.0813C8.30821 12.646 8.82496 12.3007 9.39367 12.0651C9.96239 11.8296 10.5719 11.7083 11.1875 11.7083C11.8031 11.7083 12.4126 11.8296 12.9813 12.0651C13.55 12.3007 14.0668 12.646 14.5021 13.0813C14.9373 13.5165 15.2826 14.0333 15.5182 14.602C15.7538 15.1707 15.875 15.7803 15.875 16.3958C15.875 17.639 15.3811 18.8313 14.5021 19.7104C13.623 20.5895 12.4307 21.0833 11.1875 21.0833C9.9443 21.0833 8.75201 20.5895 7.87294 19.7104C6.99386 18.8313 6.5 17.639 6.5 16.3958ZM11.1875 14.8333C10.7731 14.8333 10.3757 14.998 10.0826 15.291C9.78962 15.584 9.625 15.9814 9.625 16.3958C9.625 16.8102 9.78962 17.2077 10.0826 17.5007C10.3757 17.7937 10.7731 17.9583 11.1875 17.9583C11.6019 17.9583 11.9993 17.7937 12.2924 17.5007C12.5854 17.2077 12.75 16.8102 12.75 16.3958C12.75 15.9814 12.5854 15.584 12.2924 15.291C11.9993 14.998 11.6019 14.8333 11.1875 14.8333ZM11.1875 23.1667C9.9443 23.1667 8.75201 23.6605 7.87294 24.5396C6.99386 25.4187 6.5 26.611 6.5 27.8542C6.5 29.0974 6.99386 30.2897 7.87294 31.1687C8.75201 32.0478 9.9443 32.5417 11.1875 32.5417C12.4307 32.5417 13.623 32.0478 14.5021 31.1687C15.3811 30.2897 15.875 29.0974 15.875 27.8542C15.875 26.611 15.3811 25.4187 14.5021 24.5396C13.623 23.6605 12.4307 23.1667 11.1875 23.1667ZM9.625 27.8542C9.625 27.4398 9.78962 27.0423 10.0826 26.7493C10.3757 26.4563 10.7731 26.2917 11.1875 26.2917C11.6019 26.2917 11.9993 26.4563 12.2924 26.7493C12.5854 27.0423 12.75 27.4398 12.75 27.8542C12.75 28.2686 12.5854 28.666 12.2924 28.959C11.9993 29.252 11.6019 29.4167 11.1875 29.4167C10.7731 29.4167 10.3757 29.252 10.0826 28.959C9.78962 28.666 9.625 28.2686 9.625 27.8542ZM19 16.3958C19 15.9814 19.1646 15.584 19.4576 15.291C19.7507 14.998 20.1481 14.8333 20.5625 14.8333H29.9375C30.3519 14.8333 30.7493 14.998 31.0424 15.291C31.3354 15.584 31.5 15.9814 31.5 16.3958C31.5 16.8102 31.3354 17.2077 31.0424 17.5007C30.7493 17.7937 30.3519 17.9583 29.9375 17.9583H20.5625C20.1481 17.9583 19.7507 17.7937 19.4576 17.5007C19.1646 17.2077 19 16.8102 19 16.3958ZM20.5625 26.2917C20.1481 26.2917 19.7507 26.4563 19.4576 26.7493C19.1646 27.0423 19 27.4398 19 27.8542C19 28.2686 19.1646 28.666 19.4576 28.959C19.7507 29.252 20.1481 29.4167 20.5625 29.4167H29.9375C30.3519 29.4167 30.7493 29.252 31.0424 28.959C31.3354 28.666 31.5 28.2686 31.5 27.8542C31.5 27.4398 31.3354 27.0423 31.0424 26.7493C30.7493 26.4563 30.3519 26.2917 29.9375 26.2917H20.5625ZM6.5 8.0625C6.5 7.6481 6.66462 7.25067 6.95765 6.95765C7.25067 6.66462 7.6481 6.5 8.0625 6.5H29.9375C30.3519 6.5 30.7493 6.66462 31.0424 6.95765C31.3354 7.25067 31.5 7.6481 31.5 8.0625C31.5 8.4769 31.3354 8.87433 31.0424 9.16735C30.7493 9.46038 30.3519 9.625 29.9375 9.625H8.0625C7.6481 9.625 7.25067 9.46038 6.95765 9.16735C6.66462 8.87433 6.5 8.4769 6.5 8.0625ZM7.02083 0.25C5.2251 0.25 3.50291 0.963353 2.23313 2.23313C0.963353 3.50291 0.25 5.2251 0.25 7.02083V30.9792C0.25 32.7749 0.963353 34.4971 2.23313 35.7669C3.50291 37.0366 5.2251 37.75 7.02083 37.75H30.9792C32.7749 37.75 34.4971 37.0366 35.7669 35.7669C37.0366 34.4971 37.75 32.7749 37.75 30.9792V7.02083C37.75 5.2251 37.0366 3.50291 35.7669 2.23313C34.4971 0.963353 32.7749 0.25 30.9792 0.25H7.02083ZM3.375 7.02083C3.375 5.00833 5.00833 3.375 7.02083 3.375H30.9792C32.9917 3.375 34.625 5.00833 34.625 7.02083V30.9792C34.625 31.9461 34.2409 32.8734 33.5572 33.5572C32.8734 34.2409 31.9461 34.625 30.9792 34.625H7.02083C6.0539 34.625 5.12657 34.2409 4.44284 33.5572C3.75911 32.8734 3.375 31.9461 3.375 30.9792V7.02083Z" fill="black"/>
</svg>
