<svg width="26" height="30" viewBox="0 0 26 30" fill="none" xmlns="http://www.w3.org/2000/svg">
<path d="M1.5 29.5834C0.947715 29.5834 0.5 29.1356 0.5 28.5834V1.41669C0.5 0.864401 0.947715 0.416687 1.5 0.416687H3.66667C4.21895 0.416687 4.66667 0.864402 4.66667 1.41669V11.9167C4.66667 12.469 5.11438 12.9167 5.66667 12.9167H20.3333C20.8856 12.9167 21.3333 12.469 21.3333 11.9167V1.41669C21.3333 0.864402 21.781 0.416687 22.3333 0.416687H24.5C25.0523 0.416687 25.5 0.864402 25.5 1.41669V28.5834C25.5 29.1356 25.0523 29.5834 24.5 29.5834H22.3333C21.781 29.5834 21.3333 29.1356 21.3333 28.5834V18.0834C21.3333 17.5311 20.8856 17.0834 20.3333 17.0834H5.66667C5.11438 17.0834 4.66667 17.5311 4.66667 18.0834V28.5834C4.66667 29.1356 4.21895 29.5834 3.66667 29.5834H1.5Z" fill="black"/>
</svg>
