<svg width="38" height="38" viewBox="0 0 38 38" fill="none" xmlns="http://www.w3.org/2000/svg">
<path d="M26.2917 14.8333C27.1205 14.8333 27.9153 14.5041 28.5014 13.918C29.0874 13.332 29.4167 12.5371 29.4167 11.7083C29.4167 10.8795 29.0874 10.0847 28.5014 9.4986C27.9153 8.91255 27.1205 8.58331 26.2917 8.58331C25.4629 8.58331 24.668 8.91255 24.082 9.4986C23.4959 10.0847 23.1667 10.8795 23.1667 11.7083C23.1667 12.5371 23.4959 13.332 24.082 13.918C24.668 14.5041 25.4629 14.8333 26.2917 14.8333Z" fill="black"/>
<path d="M0.25 4.41667C0.25 3.3116 0.688987 2.25179 1.47039 1.47039C2.25179 0.688987 3.3116 0.25 4.41667 0.25H33.5833C34.6884 0.25 35.7482 0.688987 36.5296 1.47039C37.311 2.25179 37.75 3.3116 37.75 4.41667V33.5833C37.75 34.6884 37.311 35.7482 36.5296 36.5296C35.7482 37.311 34.6884 37.75 33.5833 37.75H4.41667C3.3116 37.75 2.25179 37.311 1.47039 36.5296C0.688987 35.7482 0.25 34.6884 0.25 33.5833V4.41667ZM33.5833 4.41667H4.41667V20.9167L11.4479 15.2917C11.8174 14.9958 12.2767 14.8346 12.75 14.8346C13.2233 14.8346 13.6826 14.9958 14.0521 15.2917L23.0104 22.4583L25.8604 19.6104C26.2511 19.2199 26.7809 19.0004 27.3333 19.0004C27.8858 19.0004 28.4156 19.2199 28.8062 19.6104L33.5833 24.3875V4.41667ZM4.41667 33.5833H33.5833V30.2792L27.3333 24.0292L24.6396 26.7229C24.2771 27.0856 23.7936 27.3019 23.2815 27.3304C22.7695 27.3588 22.265 27.1974 21.8646 26.8771L12.75 19.5833L4.41667 26.25V33.5833Z" fill="black"/>
</svg>
