<svg width="46" height="28" viewBox="0 0 46 28" fill="none" xmlns="http://www.w3.org/2000/svg">
<path d="M8.41699 6.70833H11.542M11.542 6.70833H14.667M11.542 6.70833V21.2917M11.542 21.2917H8.41699M11.542 21.2917H14.667M6.33366 1.5H39.667C40.7721 1.5 41.8319 1.93899 42.6133 2.72039C43.3947 3.50179 43.8337 4.5616 43.8337 5.66667V22.3333C43.8337 23.4384 43.3947 24.4982 42.6133 25.2796C41.8319 26.061 40.7721 26.5 39.667 26.5H6.33366C5.22859 26.5 4.16878 26.061 3.38738 25.2796C2.60598 24.4982 2.16699 23.4384 2.16699 22.3333V5.66667C2.16699 4.5616 2.60598 3.50179 3.38738 2.72039C4.16878 1.93899 5.22859 1.5 6.33366 1.5Z" stroke="black" stroke-width="3" stroke-linecap="round" stroke-linejoin="round"/>
</svg>
