<svg width="37" height="12" viewBox="0 0 37 12" fill="none" xmlns="http://www.w3.org/2000/svg">
<path d="M0.884943 11V0.818182H3.03764V9.22514H7.4027V11H0.884943ZM10.9661 11.1442C10.4789 11.1442 10.0447 11.0597 9.66353 10.8906C9.28237 10.7183 8.98076 10.4647 8.7587 10.13C8.53995 9.7919 8.43058 9.37098 8.43058 8.86719C8.43058 8.44295 8.50846 8.08665 8.66424 7.7983C8.82002 7.50994 9.03214 7.27794 9.3006 7.10227C9.56907 6.92661 9.87399 6.79403 10.2154 6.70455C10.5601 6.61506 10.9213 6.55208 11.2992 6.51562C11.7433 6.46922 12.1013 6.42614 12.373 6.38636C12.6448 6.34328 12.842 6.2803 12.9647 6.19744C13.0873 6.11458 13.1486 5.99195 13.1486 5.82955V5.79972C13.1486 5.48485 13.0492 5.24124 12.8503 5.06889C12.6548 4.89654 12.3764 4.81037 12.0151 4.81037C11.6339 4.81037 11.3307 4.89489 11.1053 5.06392C10.8799 5.22964 10.7308 5.43845 10.6578 5.69034L8.69904 5.53125C8.79847 5.06723 8.99402 4.66619 9.28569 4.32812C9.57736 3.98674 9.95354 3.7249 10.4142 3.54261C10.8783 3.35701 11.4152 3.2642 12.025 3.2642C12.4493 3.2642 12.8553 3.31392 13.2431 3.41335C13.6342 3.51278 13.9805 3.6669 14.2821 3.87571C14.5871 4.08452 14.8274 4.35298 15.003 4.68111C15.1787 5.00592 15.2665 5.39536 15.2665 5.84943V11H13.258V9.94105H13.1983C13.0757 10.1797 12.9116 10.3902 12.7061 10.5724C12.5007 10.7514 12.2537 10.8923 11.9654 10.995C11.677 11.0945 11.3439 11.1442 10.9661 11.1442ZM11.5726 9.68253C11.8842 9.68253 12.1593 9.62121 12.3979 9.49858C12.6365 9.37263 12.8238 9.2036 12.9597 8.99148C13.0956 8.77936 13.1635 8.53906 13.1635 8.2706V7.46023C13.0972 7.50331 13.0061 7.54309 12.8901 7.57955C12.7774 7.61269 12.6498 7.64418 12.5073 7.67401C12.3648 7.70052 12.2222 7.72538 12.0797 7.74858C11.9372 7.76847 11.8079 7.78669 11.6919 7.80327C11.4434 7.83973 11.2263 7.89773 11.0407 7.97727C10.8551 8.05682 10.7109 8.16454 10.6081 8.30043C10.5054 8.433 10.454 8.59872 10.454 8.79759C10.454 9.08594 10.5584 9.30634 10.7672 9.45881C10.9793 9.60795 11.2478 9.68253 11.5726 9.68253ZM16.9494 11V0.818182H19.0673V4.64631H19.1319C19.2247 4.44081 19.359 4.23201 19.5346 4.01989C19.7136 3.80445 19.9456 3.62547 20.2306 3.48295C20.519 3.33712 20.877 3.2642 21.3045 3.2642C21.8613 3.2642 22.3751 3.41004 22.8457 3.7017C23.3163 3.99006 23.6925 4.4259 23.9743 5.00923C24.256 5.58925 24.3968 6.31676 24.3968 7.19176C24.3968 8.04356 24.2593 8.76278 23.9842 9.34943C23.7124 9.93277 23.3412 10.3752 22.8706 10.6768C22.4032 10.9751 21.8796 11.1243 21.2995 11.1243C20.8886 11.1243 20.5389 11.0563 20.2505 10.9205C19.9655 10.7846 19.7318 10.6139 19.5495 10.4084C19.3672 10.1996 19.228 9.98911 19.1319 9.77699H19.0375V11H16.9494ZM19.0225 7.18182C19.0225 7.63589 19.0855 8.03196 19.2115 8.37003C19.3374 8.7081 19.5197 8.97159 19.7583 9.16051C19.997 9.34612 20.287 9.43892 20.6284 9.43892C20.9731 9.43892 21.2647 9.34446 21.5034 9.15554C21.742 8.9633 21.9226 8.69815 22.0453 8.36009C22.1712 8.0187 22.2342 7.62595 22.2342 7.18182C22.2342 6.741 22.1729 6.35322 22.0502 6.01847C21.9276 5.68371 21.747 5.42187 21.5083 5.23295C21.2697 5.04403 20.9764 4.94957 20.6284 4.94957C20.2837 4.94957 19.992 5.04072 19.7534 5.22301C19.5181 5.4053 19.3374 5.66383 19.2115 5.99858C19.0855 6.33333 19.0225 6.72775 19.0225 7.18182ZM29.2901 11.1491C28.5046 11.1491 27.8285 10.9901 27.2617 10.6719C26.6983 10.3504 26.2641 9.89631 25.9592 9.30966C25.6542 8.7197 25.5018 8.02202 25.5018 7.21662C25.5018 6.43111 25.6542 5.74171 25.9592 5.14844C26.2641 4.55516 26.6933 4.0928 27.2468 3.76136C27.8036 3.42992 28.4566 3.2642 29.2056 3.2642C29.7094 3.2642 30.1784 3.34541 30.6126 3.50781C31.0501 3.6669 31.4312 3.9072 31.756 4.22869C32.0842 4.55019 32.3394 4.95455 32.5217 5.44176C32.704 5.92566 32.7951 6.49242 32.7951 7.14205V7.72372H26.3469V6.41122H30.8015C30.8015 6.1063 30.7352 5.83617 30.6026 5.60085C30.4701 5.36553 30.2861 5.18158 30.0508 5.04901C29.8188 4.91312 29.5487 4.84517 29.2404 4.84517C28.9189 4.84517 28.6339 4.91974 28.3853 5.06889C28.14 5.21473 27.9478 5.41193 27.8086 5.66051C27.6694 5.90578 27.5981 6.17921 27.5948 6.48082V7.72869C27.5948 8.10653 27.6644 8.433 27.8036 8.7081C27.9461 8.98319 28.1467 9.19531 28.4052 9.34446C28.6637 9.49361 28.9703 9.56818 29.3249 9.56818C29.5603 9.56818 29.7757 9.53504 29.9712 9.46875C30.1668 9.40246 30.3342 9.30303 30.4734 9.17045C30.6126 9.03788 30.7186 8.87547 30.7915 8.68324L32.7504 8.8125C32.6509 9.28314 32.4471 9.69413 32.1388 10.0455C31.8339 10.3935 31.4395 10.6652 30.9556 10.8608C30.475 11.053 29.9199 11.1491 29.2901 11.1491ZM36.2951 0.818182V11H34.1772V0.818182H36.2951Z" fill="black"/>
</svg>
