<svg width="42" height="42" viewBox="0 0 42 42" fill="none" xmlns="http://www.w3.org/2000/svg">
<path fill-rule="evenodd" clip-rule="evenodd" d="M21.0003 0.166626C9.49408 0.166626 0.166992 9.49371 0.166992 21C0.166992 32.5062 9.49408 41.8333 21.0003 41.8333C32.5066 41.8333 41.8337 32.5062 41.8337 21C41.8337 9.49371 32.5066 0.166626 21.0003 0.166626ZM21.0003 12.6666C18.7902 12.6666 16.6706 13.5446 15.1078 15.1074C13.545 16.6702 12.667 18.7898 12.667 21C12.667 23.2101 13.545 25.3297 15.1078 26.8925C16.6706 28.4553 18.7902 29.3333 21.0003 29.3333C23.2105 29.3333 25.3301 28.4553 26.8929 26.8925C28.4557 25.3297 29.3337 23.2101 29.3337 21C29.3337 18.7898 28.4557 16.6702 26.8929 15.1074C25.3301 13.5446 23.2105 12.6666 21.0003 12.6666Z" fill="black"/>
</svg>
