<svg width="50" height="50" viewBox="0 0 50 50" fill="none" xmlns="http://www.w3.org/2000/svg">
<path d="M29.2281 43.1015C27.6016 43.1023 26.0114 42.6206 24.6587 41.7174C23.3061 40.8142 22.2517 39.5301 21.6289 38.0276C21.0062 36.525 20.8431 34.8715 21.1603 33.2762C21.4775 31.681 22.2607 30.2156 23.4109 29.0656L25.6218 31.275C25.1483 31.7486 24.7726 32.3108 24.5163 32.9295C24.26 33.5483 24.1281 34.2115 24.1281 34.8812C24.1281 35.551 24.26 36.2142 24.5163 36.8329C24.7726 37.4517 25.1483 38.0139 25.6218 38.4875C26.0954 38.9611 26.6576 39.3367 27.2764 39.593C27.8952 39.8493 28.5583 39.9812 29.2281 39.9812C29.8978 39.9812 30.561 39.8493 31.1798 39.593C31.7985 39.3367 32.3608 38.9611 32.8343 38.4875L42.2562 29.0656C43.2126 28.1092 43.75 26.812 43.75 25.4594C43.75 24.1067 43.2126 22.8095 42.2562 21.8531C41.2998 20.8967 40.0026 20.3593 38.65 20.3593C37.2974 20.3593 36.0001 20.8967 35.0437 21.8531L32.8343 19.6437C34.3823 18.1283 36.4656 17.2848 38.6319 17.2963C40.7981 17.3078 42.8723 18.1734 44.4041 19.7052C45.9359 21.237 46.8015 23.3112 46.813 25.4774C46.8246 27.6437 45.981 29.727 44.4656 31.275L35.0437 40.6968C34.2806 41.461 33.3739 42.0669 32.3759 42.4795C31.3778 42.8922 30.3081 43.1036 29.2281 43.1015Z" fill="black"/>
<path d="M16.0375 46.8703C14.4111 46.8707 12.8212 46.3888 11.4687 45.4855C10.1163 44.5822 9.06215 43.2981 8.43961 41.7956C7.81707 40.2931 7.65412 38.6398 7.97136 37.0446C8.28861 35.4495 9.0718 33.9843 10.2219 32.8344L19.6437 23.4125C20.4029 22.629 21.3104 22.0043 22.3133 21.5748C23.3163 21.1454 24.3946 20.9198 25.4856 20.9112C26.5766 20.9025 27.6584 21.111 28.668 21.5245C29.6776 21.9379 30.5949 22.5481 31.3664 23.3196C32.1379 24.091 32.7482 25.0081 33.1618 26.0177C33.5754 27.0273 33.7841 28.109 33.7756 29.2C33.7671 30.291 33.5416 31.3694 33.1123 32.3723C32.683 33.3753 32.0584 34.2829 31.275 35.0422L29.0656 32.8328C29.5505 32.3618 29.9369 31.7991 30.2024 31.1773C30.4679 30.5556 30.6071 29.8873 30.6119 29.2113C30.6168 28.5354 30.4872 27.8651 30.2308 27.2397C29.9743 26.6142 29.596 26.046 29.1179 25.568C28.6399 25.09 28.0715 24.7119 27.446 24.4555C26.8205 24.1992 26.1502 24.0698 25.4743 24.0748C24.7983 24.0798 24.13 24.2191 23.5084 24.4847C22.8867 24.7503 22.324 25.1369 21.8531 25.6219L12.4312 35.0437C11.4748 36.0002 10.9375 37.2974 10.9375 38.65C10.9375 40.0026 11.4748 41.2998 12.4312 42.2563C13.3877 43.2127 14.6849 43.75 16.0375 43.75C17.3901 43.75 18.6873 43.2127 19.6437 42.2563L21.8531 44.4656C21.0901 45.2302 20.1836 45.8363 19.1855 46.2493C18.1875 46.6622 17.1176 46.8723 16.0375 46.8703ZM3.125 15.625H15.625V18.75H3.125V15.625ZM3.125 9.375H21.875V12.5H3.125V9.375ZM3.125 3.125H21.875V6.25H3.125V3.125Z" fill="black"/>
</svg>
