<svg width="38" height="38" viewBox="0 0 38 38" fill="none" xmlns="http://www.w3.org/2000/svg">
<path d="M10.6666 10.6666H27.3333M27.3333 19H10.6666M10.6666 27.3333H19M6.49998 35.6666H31.5C32.605 35.6666 33.6649 35.2277 34.4463 34.4463C35.2277 33.6649 35.6666 32.605 35.6666 31.5V6.49998C35.6666 5.39491 35.2277 4.3351 34.4463 3.5537C33.6649 2.7723 32.605 2.33331 31.5 2.33331H6.49998C5.39491 2.33331 4.3351 2.7723 3.5537 3.5537C2.7723 4.3351 2.33331 5.39491 2.33331 6.49998V31.5C2.33331 32.605 2.7723 33.6649 3.5537 34.4463C4.3351 35.2277 5.39491 35.6666 6.49998 35.6666Z" stroke="black" stroke-width="3" stroke-linecap="round" stroke-linejoin="round"/>
</svg>
