<svg width="50" height="38" viewBox="0 0 50 38" fill="none" xmlns="http://www.w3.org/2000/svg">
<path d="M0 8.0625C0 5.9905 0.8231 4.00336 2.28823 2.53823C3.75336 1.0731 5.7405 0.25 7.8125 0.25H42.1875C44.2595 0.25 46.2466 1.0731 47.7118 2.53823C49.1769 4.00336 50 5.9905 50 8.0625V29.9375C50 32.0095 49.1769 33.9966 47.7118 35.4618C46.2466 36.9269 44.2595 37.75 42.1875 37.75H7.8125C5.7405 37.75 3.75336 36.9269 2.28823 35.4618C0.8231 33.9966 0 32.0095 0 29.9375L0 8.0625ZM7.8125 3.375C6.5693 3.375 5.37701 3.86886 4.49794 4.74794C3.61886 5.62701 3.125 6.8193 3.125 8.0625V29.9375C3.125 31.1807 3.61886 32.373 4.49794 33.2521C5.37701 34.1311 6.5693 34.625 7.8125 34.625H42.1875C43.4307 34.625 44.623 34.1311 45.5021 33.2521C46.3811 32.373 46.875 31.1807 46.875 29.9375V8.0625C46.875 6.8193 46.3811 5.62701 45.5021 4.74794C44.623 3.86886 43.4307 3.375 42.1875 3.375H7.8125ZM41.7313 17.8937C41.8768 18.0389 41.9922 18.2113 42.071 18.4011C42.1497 18.591 42.1903 18.7945 42.1903 19C42.1903 19.2055 42.1497 19.409 42.071 19.5989C41.9922 19.7887 41.8768 19.9611 41.7313 20.1063L32.3563 29.4813C32.0629 29.7746 31.6649 29.9395 31.25 29.9395C30.8351 29.9395 30.4371 29.7746 30.1437 29.4813C29.8504 29.1879 29.6855 28.7899 29.6855 28.375C29.6855 27.9601 29.8504 27.5621 30.1437 27.2687L39.5187 17.8937C39.6639 17.7482 39.8363 17.6328 40.0261 17.554C40.216 17.4753 40.4195 17.4347 40.625 17.4347C40.8305 17.4347 41.034 17.4753 41.2239 17.554C41.4137 17.6328 41.5861 17.7482 41.7313 17.8937ZM41.7313 25.7062C41.8768 25.8514 41.9922 26.0238 42.071 26.2136C42.1497 26.4035 42.1903 26.607 42.1903 26.8125C42.1903 27.018 42.1497 27.2215 42.071 27.4114C41.9922 27.6012 41.8768 27.7736 41.7313 27.9188L40.1688 29.4813C39.8754 29.7746 39.4774 29.9395 39.0625 29.9395C38.6476 29.9395 38.2496 29.7746 37.9562 29.4813C37.6629 29.1879 37.498 28.7899 37.498 28.375C37.498 27.9601 37.6629 27.5621 37.9562 27.2687L39.5187 25.7062C39.6639 25.5607 39.8363 25.4453 40.0261 25.3665C40.216 25.2878 40.4195 25.2472 40.625 25.2472C40.8305 25.2472 41.034 25.2878 41.2239 25.3665C41.4137 25.4453 41.5861 25.5607 41.7313 25.7062Z" fill="black"/>
</svg>
