<svg width="42" height="30" viewBox="0 0 42 30" fill="none" xmlns="http://www.w3.org/2000/svg">
<mask id="path-1-inside-1_61_2512" fill="white">
<path d="M6.93752 0.416687C5.14178 0.416687 3.4196 1.13004 2.14982 2.39982C0.88004 3.6696 0.166687 5.39178 0.166687 7.18752V22.8125C0.166687 24.6083 0.88004 26.3304 2.14982 27.6002C3.4196 28.87 5.14178 29.5834 6.93752 29.5834H22.5625C24.3583 29.5834 26.0804 28.87 27.3502 27.6002C28.62 26.3304 29.3334 24.6083 29.3334 22.8125V22.1625L36.1208 26.85C38.5375 28.5167 41.8375 26.7875 41.8375 23.85V6.14794C41.8375 3.21044 38.5375 1.4771 36.1208 3.14794L29.3334 7.83752V7.18752C29.3334 5.39178 28.62 3.6696 27.3502 2.39982C26.0804 1.13004 24.3583 0.416687 22.5625 0.416687H6.93752ZM29.3334 11.6334L37.8959 5.72085C37.9741 5.66688 38.0655 5.63533 38.1604 5.62962C38.2552 5.62391 38.3499 5.64426 38.434 5.68847C38.5181 5.73267 38.5885 5.79904 38.6376 5.8804C38.6867 5.96176 38.7126 6.055 38.7125 6.15002V23.8479C38.7126 23.943 38.6867 24.0362 38.6376 24.1176C38.5885 24.1989 38.5181 24.2653 38.434 24.3095C38.3499 24.3537 38.2552 24.374 38.1604 24.3683C38.0655 24.3626 37.9741 24.3311 37.8959 24.2771L29.3334 18.3646V11.6334ZM3.29169 7.18752C3.29169 5.17502 4.92502 3.54169 6.93752 3.54169H22.5625C24.575 3.54169 26.2084 5.17502 26.2084 7.18752V22.8125C26.2084 23.7795 25.8242 24.7068 25.1405 25.3905C24.4568 26.0742 23.5295 26.4584 22.5625 26.4584H6.93752C5.97058 26.4584 5.04325 26.0742 4.35953 25.3905C3.6758 24.7068 3.29169 23.7795 3.29169 22.8125V7.18752Z"/>
</mask>
<path d="M6.93752 0.416687C5.14178 0.416687 3.4196 1.13004 2.14982 2.39982C0.88004 3.6696 0.166687 5.39178 0.166687 7.18752V22.8125C0.166687 24.6083 0.88004 26.3304 2.14982 27.6002C3.4196 28.87 5.14178 29.5834 6.93752 29.5834H22.5625C24.3583 29.5834 26.0804 28.87 27.3502 27.6002C28.62 26.3304 29.3334 24.6083 29.3334 22.8125V22.1625L36.1208 26.85C38.5375 28.5167 41.8375 26.7875 41.8375 23.85V6.14794C41.8375 3.21044 38.5375 1.4771 36.1208 3.14794L29.3334 7.83752V7.18752C29.3334 5.39178 28.62 3.6696 27.3502 2.39982C26.0804 1.13004 24.3583 0.416687 22.5625 0.416687H6.93752ZM29.3334 11.6334L37.8959 5.72085C37.9741 5.66688 38.0655 5.63533 38.1604 5.62962C38.2552 5.62391 38.3499 5.64426 38.434 5.68847C38.5181 5.73267 38.5885 5.79904 38.6376 5.8804C38.6867 5.96176 38.7126 6.055 38.7125 6.15002V23.8479C38.7126 23.943 38.6867 24.0362 38.6376 24.1176C38.5885 24.1989 38.5181 24.2653 38.434 24.3095C38.3499 24.3537 38.2552 24.374 38.1604 24.3683C38.0655 24.3626 37.9741 24.3311 37.8959 24.2771L29.3334 18.3646V11.6334ZM3.29169 7.18752C3.29169 5.17502 4.92502 3.54169 6.93752 3.54169H22.5625C24.575 3.54169 26.2084 5.17502 26.2084 7.18752V22.8125C26.2084 23.7795 25.8242 24.7068 25.1405 25.3905C24.4568 26.0742 23.5295 26.4584 22.5625 26.4584H6.93752C5.97058 26.4584 5.04325 26.0742 4.35953 25.3905C3.6758 24.7068 3.29169 23.7795 3.29169 22.8125V7.18752Z" fill="black"/>
<path d="M6.93752 0.416687V-4.58331V0.416687ZM0.166687 7.18752H-4.83331H0.166687ZM29.3334 22.8125H24.3334H29.3334ZM29.3334 22.1625L32.1747 18.0483L24.3334 12.633V22.1625H29.3334ZM36.1208 26.85L33.2795 30.9643L33.2822 30.9661L36.1208 26.85ZM36.1208 3.14794L38.963 7.26158L38.9643 7.26068L36.1208 3.14794ZM29.3334 7.83752H24.3334V17.3694L32.1755 11.9512L29.3334 7.83752ZM22.5625 0.416687V-4.58331V0.416687ZM29.3334 11.6334L26.4923 7.51894L24.3334 9.00971V11.6334H29.3334ZM37.8959 5.72085L35.0559 1.60571L35.0548 1.60644L37.8959 5.72085ZM38.7125 6.15002L33.7125 6.14516V6.15002H38.7125ZM38.7125 23.8479H33.7125L33.7125 23.8528L38.7125 23.8479ZM37.8959 24.2771L35.0548 28.3915L35.0559 28.3922L37.8959 24.2771ZM29.3334 18.3646H24.3334V20.9882L26.4923 22.479L29.3334 18.3646ZM22.5625 26.4584V21.4584V26.4584ZM6.93752 26.4584V21.4584V26.4584ZM6.93752 -4.58331C3.8157 -4.58331 0.821744 -3.34318 -1.38572 -1.13572L5.68535 5.93535C6.01745 5.60326 6.46787 5.41669 6.93752 5.41669V-4.58331ZM-1.38572 -1.13572C-3.59318 1.07174 -4.83331 4.0657 -4.83331 7.18752H5.16669C5.16669 6.71787 5.35326 6.26745 5.68535 5.93535L-1.38572 -1.13572ZM-4.83331 7.18752V22.8125H5.16669V7.18752H-4.83331ZM-4.83331 22.8125C-4.83331 25.9343 -3.59318 28.9283 -1.38572 31.1358L5.68535 24.0647C5.35326 23.7326 5.16669 23.2822 5.16669 22.8125H-4.83331ZM-1.38572 31.1358C0.821745 33.3432 3.8157 34.5834 6.93752 34.5834V24.5834C6.46786 24.5834 6.01745 24.3968 5.68535 24.0647L-1.38572 31.1358ZM6.93752 34.5834H22.5625V24.5834H6.93752V34.5834ZM22.5625 34.5834C25.6843 34.5834 28.6783 33.3432 30.8858 31.1358L23.8147 24.0647C23.4826 24.3968 23.0322 24.5834 22.5625 24.5834V34.5834ZM30.8858 31.1358C33.0932 28.9283 34.3334 25.9343 34.3334 22.8125H24.3334C24.3334 23.2822 24.1468 23.7326 23.8147 24.0647L30.8858 31.1358ZM34.3334 22.8125V22.1625H24.3334V22.8125H34.3334ZM26.492 26.2768L33.2795 30.9643L38.9622 22.7358L32.1747 18.0483L26.492 26.2768ZM33.2822 30.9661C39.0102 34.9164 46.8375 30.8236 46.8375 23.85H36.8375C36.8375 22.7515 38.0649 22.117 38.9595 22.734L33.2822 30.9661ZM46.8375 23.85V6.14794H36.8375V23.85H46.8375ZM46.8375 6.14794C46.8375 -0.814684 39.016 -4.93239 33.2774 -0.96481L38.9643 7.26068C38.059 7.8866 36.8375 7.23556 36.8375 6.14794H46.8375ZM33.2787 -0.965704L26.4912 3.72388L32.1755 11.9512L38.963 7.26158L33.2787 -0.965704ZM34.3334 7.83752V7.18752H24.3334V7.83752H34.3334ZM34.3334 7.18752C34.3334 4.0657 33.0932 1.07174 30.8858 -1.13572L23.8147 5.93535C24.1468 6.26745 24.3334 6.71787 24.3334 7.18752H34.3334ZM30.8858 -1.13572C28.6783 -3.34318 25.6843 -4.58331 22.5625 -4.58331V5.41669C23.0322 5.41669 23.4826 5.60326 23.8147 5.93535L30.8858 -1.13572ZM22.5625 -4.58331H6.93752V5.41669H22.5625V-4.58331ZM32.1744 15.7478L40.7369 9.83527L35.0548 1.60644L26.4923 7.51894L32.1744 15.7478ZM40.7359 9.83599C40.0633 10.3002 39.2765 10.5715 38.4608 10.6206L37.86 0.638653C36.8546 0.699167 35.8848 1.0336 35.0559 1.60571L40.7359 9.83599ZM38.4608 10.6206C37.6451 10.6697 36.8314 10.4947 36.108 10.1145L40.7599 1.26241C39.8683 0.793838 38.8654 0.57814 37.86 0.638653L38.4608 10.6206ZM36.108 10.1145C35.3846 9.73434 34.779 9.1635 34.3568 8.46389L42.9184 3.29691C42.398 2.43459 41.6516 1.731 40.7599 1.26241L36.108 10.1145ZM34.3568 8.46389C33.9346 7.76432 33.7117 6.96248 33.7125 6.14516L43.7125 6.15488C43.7135 5.14751 43.4388 4.1592 42.9184 3.29691L34.3568 8.46389ZM33.7125 6.15002V23.8479H43.7125V6.15002H33.7125ZM33.7125 23.8528C33.7117 23.0355 33.9346 22.2337 34.3568 21.5341L42.9184 26.701C43.4388 25.8387 43.7135 24.8504 43.7125 23.8431L33.7125 23.8528ZM34.3568 21.5341C34.779 20.8345 35.3846 20.2636 36.108 19.8834L40.7599 28.7355C41.6516 28.267 42.398 27.5634 42.9184 26.701L34.3568 21.5341ZM36.108 19.8834C36.8314 19.5033 37.645 19.3283 38.4608 19.3774L37.86 29.3593C38.8655 29.4198 39.8683 29.2041 40.7599 28.7355L36.108 19.8834ZM38.4608 19.3774C39.2766 19.4265 40.0634 19.6979 40.7359 20.162L35.0559 28.3922C35.8848 28.9643 36.8545 29.2988 37.86 29.3593L38.4608 19.3774ZM40.7369 20.1627L32.1744 14.2502L26.4923 22.479L35.0548 28.3915L40.7369 20.1627ZM34.3334 18.3646V11.6334H24.3334V18.3646H34.3334ZM8.29169 7.18752C8.29169 7.93644 7.68644 8.54169 6.93752 8.54169V-1.45831C2.1636 -1.45831 -1.70831 2.4136 -1.70831 7.18752H8.29169ZM6.93752 8.54169H22.5625V-1.45831H6.93752V8.54169ZM22.5625 8.54169C21.8136 8.54169 21.2084 7.93644 21.2084 7.18752H31.2084C31.2084 2.4136 27.3364 -1.45831 22.5625 -1.45831V8.54169ZM21.2084 7.18752V22.8125H31.2084V7.18752H21.2084ZM21.2084 22.8125C21.2084 22.4534 21.351 22.1089 21.605 21.855L28.676 28.926C30.2975 27.3046 31.2084 25.1055 31.2084 22.8125H21.2084ZM21.605 21.855C21.8589 21.601 22.2034 21.4584 22.5625 21.4584V31.4584C24.8555 31.4584 27.0546 30.5475 28.676 28.926L21.605 21.855ZM22.5625 21.4584H6.93752V31.4584H22.5625V21.4584ZM6.93752 21.4584C7.29667 21.4584 7.64111 21.601 7.89506 21.855L0.823993 28.926C2.4454 30.5475 4.6445 31.4584 6.93752 31.4584V21.4584ZM7.89506 21.855C8.14901 22.1089 8.29169 22.4534 8.29169 22.8125H-1.70831C-1.70831 25.1055 -0.797414 27.3046 0.823993 28.926L7.89506 21.855ZM8.29169 22.8125V7.18752H-1.70831V22.8125H8.29169Z" fill="black" mask="url(#path-1-inside-1_61_2512)"/>
</svg>
