<svg width="48" height="48" viewBox="0 0 48 48" fill="none" xmlns="http://www.w3.org/2000/svg">
<g clip-path="url(#clip0_808_101)">
<path d="M33.6096 0H14.3904C13.1199 0 11.9014 0.504701 11.0031 1.40308C10.1047 2.30145 9.59998 3.51991 9.59998 4.7904V43.2072C9.59998 45.8544 11.7456 48 14.3904 48H33.6072C34.8779 48 36.0966 47.4954 36.9953 46.5971C37.8941 45.6988 38.3993 44.4803 38.4 43.2096V4.7904C38.4 3.51991 37.8953 2.30145 36.9969 1.40308C36.0985 0.504701 34.8801 0 33.6096 0ZM24 45.6C22.344 45.6 21 44.5272 21 43.2C21 41.8728 22.344 40.8 24 40.8C25.656 40.8 27 41.8728 27 43.2C27 44.5272 25.656 45.6 24 45.6ZM33.6 38.4H14.4V4.8H33.6V38.4Z" fill="black"/>
</g>
<defs>
<clipPath id="clip0_808_101">
<rect width="48" height="48" fill="white"/>
</clipPath>
</defs>
</svg>
