<svg width="48" height="48" viewBox="0 0 48 48" fill="none" xmlns="http://www.w3.org/2000/svg">
<path fill-rule="evenodd" clip-rule="evenodd" d="M9.59999 8.76523C9.59957 8.91463 9.55731 9.06093 9.47802 9.18755C9.39872 9.31417 9.28556 9.41606 9.15133 9.48167C9.01711 9.54728 8.8672 9.574 8.71857 9.55879C8.56995 9.54359 8.42855 9.48707 8.31039 9.39563L3.21279 5.43083C3.11703 5.35601 3.03957 5.26035 2.9863 5.15112C2.93302 5.04189 2.90533 4.92196 2.90533 4.80043C2.90533 4.6789 2.93302 4.55897 2.9863 4.44974C3.03957 4.34051 3.11703 4.24485 3.21279 4.17003L8.31039 0.20203C8.42898 0.110261 8.57097 0.0536665 8.72017 0.038702C8.86936 0.0237375 9.01976 0.0510053 9.15421 0.117395C9.28866 0.183785 9.40174 0.286625 9.48056 0.414184C9.55938 0.541743 9.60077 0.688886 9.59999 0.83883V3.20683H28.8V0.83243C28.8 0.682473 28.8421 0.535525 28.9215 0.408348C29.001 0.281171 29.1146 0.178886 29.2494 0.113161C29.3841 0.0474361 29.5347 0.0209178 29.6838 0.0366311C29.833 0.0523445 29.9747 0.109657 30.0928 0.20203L35.1872 4.16683C35.283 4.24165 35.3604 4.33731 35.4137 4.44654C35.467 4.55577 35.4947 4.6757 35.4947 4.79723C35.4947 4.91876 35.467 5.03869 35.4137 5.14792C35.3604 5.25715 35.283 5.35281 35.1872 5.42763L30.0928 9.39563C29.9745 9.48817 29.8324 9.54552 29.683 9.56112C29.5336 9.57671 29.3828 9.54992 29.2479 9.4838C29.113 9.41769 28.9995 9.31493 28.9202 9.18728C28.841 9.05963 28.7994 8.91226 28.8 8.76203V6.40043H9.59999V8.76523ZM30.4 16.0004H7.99999C7.57565 16.0004 7.16868 16.169 6.86862 16.4691C6.56857 16.7691 6.39999 17.1761 6.39999 17.6004V40.0004C6.39999 40.4248 6.56857 40.8317 6.86862 41.1318C7.16868 41.4319 7.57565 41.6004 7.99999 41.6004H30.4C30.8243 41.6004 31.2313 41.4319 31.5314 41.1318C31.8314 40.8317 32 40.4248 32 40.0004V17.6004C32 17.1761 31.8314 16.7691 31.5314 16.4691C31.2313 16.169 30.8243 16.0004 30.4 16.0004ZM7.99999 12.8004C6.72696 12.8004 5.50606 13.3061 4.60588 14.2063C3.70571 15.1065 3.19999 16.3274 3.19999 17.6004V40.0004C3.19999 41.2735 3.70571 42.4944 4.60588 43.3945C5.50606 44.2947 6.72696 44.8004 7.99999 44.8004H30.4C31.673 44.8004 32.8939 44.2947 33.7941 43.3945C34.6943 42.4944 35.2 41.2735 35.2 40.0004V17.6004C35.2 16.3274 34.6943 15.1065 33.7941 14.2063C32.8939 13.3061 31.673 12.8004 30.4 12.8004H7.99999ZM47.1648 19.2004H44.8V38.4004H47.1648C47.3142 38.4009 47.4605 38.4431 47.5871 38.5224C47.7137 38.6017 47.8156 38.7149 47.8812 38.8491C47.9468 38.9833 47.9736 39.1332 47.9584 39.2819C47.9431 39.4305 47.8866 39.5719 47.7952 39.69L43.8304 44.7876C43.7556 44.8834 43.6599 44.9609 43.5507 45.0141C43.4415 45.0674 43.3215 45.0951 43.2 45.0951C43.0785 45.0951 42.9585 45.0674 42.8493 45.0141C42.7401 44.9609 42.6444 44.8834 42.5696 44.7876L38.6016 39.69C38.51 39.5717 38.4534 39.43 38.4384 39.2811C38.4233 39.1321 38.4503 38.982 38.5163 38.8477C38.5823 38.7133 38.6846 38.6002 38.8117 38.5211C38.9388 38.4421 39.0855 38.4003 39.2352 38.4004H41.6V19.2004H39.2352C39.0858 19.2 38.9395 19.1577 38.8129 19.0785C38.6863 18.9992 38.5844 18.886 38.5188 18.7518C38.4531 18.6175 38.4264 18.4676 38.4416 18.319C38.4568 18.1704 38.5134 18.029 38.6048 17.9108L42.5696 12.8132C42.6444 12.7175 42.7401 12.64 42.8493 12.5867C42.9585 12.5335 43.0785 12.5058 43.2 12.5058C43.3215 12.5058 43.4415 12.5335 43.5507 12.5867C43.6599 12.64 43.7556 12.7175 43.8304 12.8132L47.7984 17.9108C47.89 18.0292 47.9465 18.1709 47.9616 18.3198C47.9767 18.4687 47.9497 18.6189 47.8837 18.7532C47.8177 18.8875 47.7154 19.0007 47.5883 19.0797C47.4612 19.1588 47.3145 19.2006 47.1648 19.2004Z" fill="black"/>
</svg>
