<svg width="27" height="21" viewBox="0 0 27 21" fill="none" xmlns="http://www.w3.org/2000/svg">
<path d="M0.976905 0.0957075C1.75034 -0.194918 2.61753 0.198833 2.90816 0.97227L8.07378 14.7535L12.0628 1.08008C12.2503 0.437895 12.8363 0.00195748 13.5019 0.00195748C14.1675 0.00195748 14.7535 0.442582 14.941 1.08008L18.93 14.7535L24.0957 0.976957C24.3863 0.20352 25.2488 -0.19023 26.0269 0.100395C26.805 0.39102 27.1941 1.25821 26.9035 2.03165L20.1535 20.0316C19.9285 20.6363 19.3378 21.0301 18.691 21.002C18.0441 20.9738 17.4863 20.5426 17.3082 19.9238L13.5019 6.85977L9.69097 19.9238C9.50815 20.5426 8.95034 20.9785 8.30816 21.002C7.66597 21.0254 7.07534 20.6363 6.84566 20.0316L0.0956553 2.02696C-0.19497 1.25352 0.19878 0.386332 0.976905 0.0957075Z" fill="black"/>
</svg>
