<svg width="48" height="48" viewBox="0 0 48 48" fill="none" xmlns="http://www.w3.org/2000/svg">
<g clip-path="url(#clip0_808_99)">
<path d="M4.79999 4.8C4.79999 2.16 6.95999 0 9.59999 0H38.4C39.673 0 40.8939 0.505713 41.7941 1.40589C42.6943 2.30606 43.2 3.52696 43.2 4.8V43.2C43.2 44.473 42.6943 45.6939 41.7941 46.5941C40.8939 47.4943 39.673 48 38.4 48H9.59999C8.32695 48 7.10605 47.4943 6.20588 46.5941C5.3057 45.6939 4.79999 44.473 4.79999 43.2V4.8ZM9.59999 4.8V38.4H38.4V4.8H9.59999ZM24 45.6C24.6365 45.6 25.247 45.3471 25.697 44.8971C26.1471 44.447 26.4 43.8365 26.4 43.2C26.4 42.5635 26.1471 41.953 25.697 41.5029C25.247 41.0529 24.6365 40.8 24 40.8C23.3635 40.8 22.753 41.0529 22.3029 41.5029C21.8528 41.953 21.6 42.5635 21.6 43.2C21.6 43.8365 21.8528 44.447 22.3029 44.8971C22.753 45.3471 23.3635 45.6 24 45.6Z" fill="black"/>
</g>
<defs>
<clipPath id="clip0_808_99">
<rect width="48" height="48" fill="white"/>
</clipPath>
</defs>
</svg>
